<?xml version="1.0" encoding="utf-8"?>
<!-- Generator: Adobe Illustrator 20.0.0, SVG Export Plug-In . SVG Version: 6.00 Build 0)  -->
<svg version="1.1" id="Layer_1" xmlns="http://www.w3.org/2000/svg" xmlns:xlink="http://www.w3.org/1999/xlink" x="0px" y="0px"
	 viewBox="0 0 40 40" style="enable-background:new 0 0 40 40;" xml:space="preserve">
<path d="M19.8,0.5C9.1,0.5,0.5,9.1,0.5,19.8s8.6,19.3,19.3,19.3s19.3-8.6,19.3-19.3S30.5,0.5,19.8,0.5z M14.8,28h-4.5V14.4h4.5V28z
	 M12.5,12.5c-1.5,0-2.5-1-2.5-2.3s1-2.3,2.5-2.3c1.6,0,2.5,1,2.5,2.3S14.1,12.5,12.5,12.5z M31,28h-4.5v-7.2c0-1.8-0.7-3.1-2.3-3.1
	c-1.2,0-2,0.8-2.3,1.6c-0.1,0.3-0.1,0.7-0.1,1.1V28h-4.5c0,0,0.1-12.3,0-13.5h4.5v1.9c0.6-0.9,1.7-2.2,4.1-2.2
	c2.9-0.1,5.1,1.8,5.1,6V28z"/>
</svg>
